<svg xmlns="http://www.w3.org/2000/svg" width="52" height="52" fill="none"><path fill="#fff" d="M26.596 19.5h15.438a16.6 16.6 0 0 0-4.468-6.42 17.088 17.088 0 0 0-6.907-3.763l-4.983 8.558c-.217.361-.217.722 0 1.083.216.361.523.542.92.542Zm-7.8 2.708c.217.361.524.542.921.542.398 0 .705-.18.921-.542l7.746-13.325a13.483 13.483 0 0 0-2.383-.216c-2.384 0-4.605.451-6.663 1.354a18.776 18.776 0 0 0-5.47 3.629l4.929 8.558ZM9.21 30.333h9.913c.397 0 .713-.18.948-.541.236-.362.245-.723.026-1.084l-7.745-13.325a17.796 17.796 0 0 0-2.709 4.903c-.65 1.789-.975 3.693-.975 5.714 0 .758.046 1.49.137 2.195.09.705.226 1.418.405 2.138Zm12.133 12.35 4.93-8.558c.216-.361.208-.722-.026-1.083-.234-.361-.55-.542-.95-.542H9.968a16.59 16.59 0 0 0 4.47 6.42 17.108 17.108 0 0 0 6.905 3.763Zm4.659.65c2.383 0 4.604-.451 6.662-1.354a18.777 18.777 0 0 0 5.471-3.63l-4.93-8.557c-.216-.362-.523-.542-.92-.542s-.704.18-.92.542l-7.747 13.325a12.9 12.9 0 0 0 2.383.217Zm13.65-6.716a17.809 17.809 0 0 0 2.708-4.901c.65-1.787.975-3.692.975-5.716 0-.758-.045-1.49-.134-2.193a18.208 18.208 0 0 0-.408-2.14H32.88c-.397 0-.713.18-.947.541-.234.361-.243.723-.028 1.084l7.746 13.325ZM26 47.667c-2.962 0-5.76-.57-8.396-1.708-2.636-1.138-4.938-2.69-6.905-4.658-1.968-1.967-3.52-4.27-4.659-6.905C4.903 31.76 4.334 28.96 4.334 26c0-2.997.57-5.805 1.707-8.422 1.139-2.617 2.691-4.91 4.659-6.88 1.967-1.968 4.269-3.52 6.905-4.657S23.039 4.335 26 4.333c2.997 0 5.805.57 8.424 1.708 2.618 1.138 4.91 2.69 6.877 4.658 1.965 1.967 3.518 4.26 4.658 6.88 1.14 2.618 1.709 5.425 1.707 8.42 0 2.962-.569 5.76-1.707 8.397-1.138 2.636-2.691 4.938-4.658 6.907a22.001 22.001 0 0 1-6.88 4.658c-2.618 1.137-5.426 1.706-8.421 1.706Z"/></svg>